<?xml version="1.0" encoding="UTF-8" standalone="no"?>
<svg xmlns="http://www.w3.org/2000/svg" xmlns:xlink="http://www.w3.org/1999/xlink"  version="1.2" baseProfile="tiny">
<title>pyqtgraph SVG export</title>
<desc>Generated with Qt and pyqtgraph</desc>
<defs>
</defs>
<g id="GraphicsScene_1">
    <g fill="none" fill-rule="evenodd" id="GraphicsLayout_1" stroke="black" stroke-linecap="square" stroke-linejoin="bevel" stroke-width="1">
        <g fill="none" fill-rule="evenodd" id="AxisItem_1" stroke="black" stroke-linecap="square" stroke-linejoin="bevel" stroke-width="1">
            <g fill="none" font-family="MS Shell Dlg 2" font-size="12.5" font-style="normal" font-weight="400" stroke="#000000" stroke-linecap="square" stroke-linejoin="bevel" stroke-opacity="1" stroke-width="1">
                <polyline fill="none" points="53.0,438.2 629.0,438.2" vector-effect="non-scaling-stroke"/>
            </g>
            <g fill="none" font-family="MS Shell Dlg 2" font-size="12.5" font-style="normal" font-weight="400" stroke="#000000" stroke-linecap="square" stroke-linejoin="bevel" stroke-opacity="1" stroke-width="1">
                <polyline fill="none" points="68.8594,438.2 68.8594,433.2" vector-effect="non-scaling-stroke"/>
                <polyline fill="none" points="309.119,438.2 309.119,433.2" vector-effect="non-scaling-stroke"/>
                <polyline fill="none" points="549.378,438.2 549.378,433.2" vector-effect="non-scaling-stroke"/>
            </g>
            <g fill="none" font-family="MS Shell Dlg 2" font-size="12.5" font-style="normal" font-weight="400" stroke="#000000" stroke-linecap="square" stroke-linejoin="bevel" stroke-opacity="0.498039" stroke-width="1">
                <polyline fill="none" points="188.989,438.2 188.989,434.86667" vector-effect="non-scaling-stroke"/>
                <polyline fill="none" points="429.249,438.2 429.249,434.86667" vector-effect="non-scaling-stroke"/>
            </g>
            <g fill="none" font-family="MS Shell Dlg 2" font-size="12.5" font-style="normal" font-weight="400" stroke="#000000" stroke-linecap="square" stroke-linejoin="bevel" stroke-opacity="0.333333" stroke-width="1">
                <polyline fill="none" points="57.21763,438.2 57.21763,435.7" vector-effect="non-scaling-stroke"/>
                <polyline fill="none" points="63.36257,438.2 63.36257,435.7" vector-effect="non-scaling-stroke"/>
                <polyline fill="none" points="68.8594,438.2 68.8594,435.7" vector-effect="non-scaling-stroke"/>
                <polyline fill="none" points="105.0221,438.2 105.0221,435.7" vector-effect="non-scaling-stroke"/>
                <polyline fill="none" points="126.1759,438.2 126.1759,435.7" vector-effect="non-scaling-stroke"/>
                <polyline fill="none" points="141.1847,438.2 141.1847,435.7" vector-effect="non-scaling-stroke"/>
                <polyline fill="none" points="152.8265,438.2 152.8265,435.7" vector-effect="non-scaling-stroke"/>
                <polyline fill="none" points="162.339,438.2 162.339,435.7" vector-effect="non-scaling-stroke"/>
                <polyline fill="none" points="170.381,438.2 170.381,435.7" vector-effect="non-scaling-stroke"/>
                <polyline fill="none" points="177.347,438.2 177.347,435.7" vector-effect="non-scaling-stroke"/>
                <polyline fill="none" points="183.492,438.2 183.492,435.7" vector-effect="non-scaling-stroke"/>
                <polyline fill="none" points="188.989,438.2 188.989,435.7" vector-effect="non-scaling-stroke"/>
                <polyline fill="none" points="225.152,438.2 225.152,435.7" vector-effect="non-scaling-stroke"/>
                <polyline fill="none" points="246.306,438.2 246.306,435.7" vector-effect="non-scaling-stroke"/>
                <polyline fill="none" points="261.315,438.2 261.315,435.7" vector-effect="non-scaling-stroke"/>
                <polyline fill="none" points="272.956,438.2 272.956,435.7" vector-effect="non-scaling-stroke"/>
                <polyline fill="none" points="282.468,438.2 282.468,435.7" vector-effect="non-scaling-stroke"/>
                <polyline fill="none" points="290.511,438.2 290.511,435.7" vector-effect="non-scaling-stroke"/>
                <polyline fill="none" points="297.477,438.2 297.477,435.7" vector-effect="non-scaling-stroke"/>
                <polyline fill="none" points="303.622,438.2 303.622,435.7" vector-effect="non-scaling-stroke"/>
                <polyline fill="none" points="309.119,438.2 309.119,435.7" vector-effect="non-scaling-stroke"/>
                <polyline fill="none" points="345.282,438.2 345.282,435.7" vector-effect="non-scaling-stroke"/>
                <polyline fill="none" points="366.435,438.2 366.435,435.7" vector-effect="non-scaling-stroke"/>
                <polyline fill="none" points="381.444,438.2 381.444,435.7" vector-effect="non-scaling-stroke"/>
                <polyline fill="none" points="393.086,438.2 393.086,435.7" vector-effect="non-scaling-stroke"/>
                <polyline fill="none" points="402.598,438.2 402.598,435.7" vector-effect="non-scaling-stroke"/>
                <polyline fill="none" points="410.64,438.2 410.64,435.7" vector-effect="non-scaling-stroke"/>
                <polyline fill="none" points="417.607,438.2 417.607,435.7" vector-effect="non-scaling-stroke"/>
                <polyline fill="none" points="423.752,438.2 423.752,435.7" vector-effect="non-scaling-stroke"/>
                <polyline fill="none" points="429.249,438.2 429.249,435.7" vector-effect="non-scaling-stroke"/>
                <polyline fill="none" points="465.411,438.2 465.411,435.7" vector-effect="non-scaling-stroke"/>
                <polyline fill="none" points="486.565,438.2 486.565,435.7" vector-effect="non-scaling-stroke"/>
                <polyline fill="none" points="501.574,438.2 501.574,435.7" vector-effect="non-scaling-stroke"/>
                <polyline fill="none" points="513.216,438.2 513.216,435.7" vector-effect="non-scaling-stroke"/>
                <polyline fill="none" points="522.728,438.2 522.728,435.7" vector-effect="non-scaling-stroke"/>
                <polyline fill="none" points="530.77,438.2 530.77,435.7" vector-effect="non-scaling-stroke"/>
                <polyline fill="none" points="537.737,438.2 537.737,435.7" vector-effect="non-scaling-stroke"/>
                <polyline fill="none" points="543.882,438.2 543.882,435.7" vector-effect="non-scaling-stroke"/>
                <polyline fill="none" points="549.378,438.2 549.378,435.7" vector-effect="non-scaling-stroke"/>
                <polyline fill="none" points="585.541,438.2 585.541,435.7" vector-effect="non-scaling-stroke"/>
                <polyline fill="none" points="606.695,438.2 606.695,435.7" vector-effect="non-scaling-stroke"/>
                <polyline fill="none" points="621.704,438.2 621.704,435.7" vector-effect="non-scaling-stroke"/>
            </g>
            <g fill="none" font-family="MS Shell Dlg 2" font-size="12.5" font-style="normal" font-weight="400" stroke="#000000" stroke-linecap="square" stroke-linejoin="bevel" stroke-opacity="1" stroke-width="1" transform="matrix(1,0,0,1,53.5,438.2)">
                <text fill="#000000" fill-opacity="1" font-family="&quot;MS Shell Dlg 2&quot;, sans-serif" font-size="12.5" font-style="normal" font-weight="400" stroke="none" x="11.8594" xml:space="preserve" y="13">1</text>
                <text fill="#000000" fill-opacity="1" font-family="&quot;MS Shell Dlg 2&quot;, sans-serif" font-size="12.5" font-style="normal" font-weight="400" stroke="none" x="237.609" xml:space="preserve" y="13">1e+02</text>
                <text fill="#000000" fill-opacity="1" font-family="&quot;MS Shell Dlg 2&quot;, sans-serif" font-size="12.5" font-style="normal" font-weight="400" stroke="none" x="477.875" xml:space="preserve" y="13">1e+04</text>
                <text fill="#000000" fill-opacity="1" font-family="&quot;MS Shell Dlg 2&quot;, sans-serif" font-size="12.5" font-style="normal" font-weight="400" stroke="none" x="117.484" xml:space="preserve" y="13">1e+01</text>
                <text fill="#000000" fill-opacity="1" font-family="&quot;MS Shell Dlg 2&quot;, sans-serif" font-size="12.5" font-style="normal" font-weight="400" stroke="none" x="357.734" xml:space="preserve" y="13">1e+03</text>
            </g>
            <g fill="none" fill-rule="evenodd" id="QGraphicsTextItem_1" stroke="black" stroke-linecap="square" stroke-linejoin="bevel" stroke-width="1">
                


                <g fill="none" font-family="MS Shell Dlg 2" font-size="12.5" font-style="normal" font-weight="400" stroke="#000000" stroke-linecap="square" stroke-linejoin="bevel" stroke-opacity="1" stroke-width="1" transform="matrix(1,0,0,1,290,453)">
                    <text fill="#000000" fill-opacity="1" font-family="&quot;MS Shell Dlg 2&quot;, sans-serif" font-size="12.5" font-style="normal" font-weight="400" stroke="none" x="4" xml:space="preserve" y="14">photon energy (eV) </text>
                </g>
                


                

            </g>
        </g>
        <g fill="none" fill-rule="evenodd" id="AxisItem_2" stroke="black" stroke-linecap="square" stroke-linejoin="bevel" stroke-width="1">
            <g fill="none" font-family="MS Shell Dlg 2" font-size="12.5" font-style="normal" font-weight="400" stroke="#000000" stroke-linecap="square" stroke-linejoin="bevel" stroke-opacity="1" stroke-width="1">
                <polyline fill="none" points="53.0,31.0 53.0,438.2" vector-effect="non-scaling-stroke"/>
            </g>
            <g fill="none" font-family="MS Shell Dlg 2" font-size="12.5" font-style="normal" font-weight="400" stroke="#000000" stroke-linecap="square" stroke-linejoin="bevel" stroke-opacity="1" stroke-width="1">
                <polyline fill="none" points="53.5,420.882 58.5,420.882" vector-effect="non-scaling-stroke"/>
                <polyline fill="none" points="53.5,47.0475 58.5,47.0475" vector-effect="non-scaling-stroke"/>
            </g>
            <g fill="none" font-family="MS Shell Dlg 2" font-size="12.5" font-style="normal" font-weight="400" stroke="#000000" stroke-linecap="square" stroke-linejoin="bevel" stroke-opacity="0.498039" stroke-width="1">
                <polyline fill="none" points="53.5,346.115 56.8333,346.115" vector-effect="non-scaling-stroke"/>
                <polyline fill="none" points="53.5,271.348 56.8333,271.348" vector-effect="non-scaling-stroke"/>
                <polyline fill="none" points="53.5,196.581 56.8333,196.581" vector-effect="non-scaling-stroke"/>
                <polyline fill="none" points="53.5,121.8143 56.8333,121.8143" vector-effect="non-scaling-stroke"/>
            </g>
            <g fill="none" font-family="MS Shell Dlg 2" font-size="12.5" font-style="normal" font-weight="400" stroke="#000000" stroke-linecap="square" stroke-linejoin="bevel" stroke-opacity="0.333333" stroke-width="1">
                <polyline fill="none" points="53.5,383.498 56.0,383.498" vector-effect="non-scaling-stroke"/>
                <polyline fill="none" points="53.5,308.731 56.0,308.731" vector-effect="non-scaling-stroke"/>
                <polyline fill="none" points="53.5,233.964 56.0,233.964" vector-effect="non-scaling-stroke"/>
                <polyline fill="none" points="53.5,159.198 56.0,159.198" vector-effect="non-scaling-stroke"/>
                <polyline fill="none" points="53.5,84.4309 56.0,84.4309" vector-effect="non-scaling-stroke"/>
            </g>
            <g fill="none" font-family="MS Shell Dlg 2" font-size="12.5" font-style="normal" font-weight="400" stroke="#000000" stroke-linecap="square" stroke-linejoin="bevel" stroke-opacity="1" stroke-width="1" transform="matrix(1,0,0,1,11.5,31)">
                <text fill="#000000" fill-opacity="1" font-family="&quot;MS Shell Dlg 2&quot;, sans-serif" font-size="12.5" font-style="normal" font-weight="400" stroke="none" x="30" xml:space="preserve" y="394.469">0</text>
                <text fill="#000000" fill-opacity="1" font-family="&quot;MS Shell Dlg 2&quot;, sans-serif" font-size="12.5" font-style="normal" font-weight="400" stroke="none" x="16" xml:space="preserve" y="20.6406">100</text>
                <text fill="#000000" fill-opacity="1" font-family="&quot;MS Shell Dlg 2&quot;, sans-serif" font-size="12.5" font-style="normal" font-weight="400" stroke="none" x="23" xml:space="preserve" y="319.703">20</text>
                <text fill="#000000" fill-opacity="1" font-family="&quot;MS Shell Dlg 2&quot;, sans-serif" font-size="12.5" font-style="normal" font-weight="400" stroke="none" x="23" xml:space="preserve" y="244.938">40</text>
                <text fill="#000000" fill-opacity="1" font-family="&quot;MS Shell Dlg 2&quot;, sans-serif" font-size="12.5" font-style="normal" font-weight="400" stroke="none" x="23" xml:space="preserve" y="170.172">60</text>
                <text fill="#000000" fill-opacity="1" font-family="&quot;MS Shell Dlg 2&quot;, sans-serif" font-size="12.5" font-style="normal" font-weight="400" stroke="none" x="23" xml:space="preserve" y="95.4062">80</text>
            </g>
            <g fill="none" fill-rule="evenodd" id="QGraphicsTextItem_2" stroke="black" stroke-linecap="square" stroke-linejoin="bevel" stroke-width="1">
                


                <g fill="none" font-family="MS Shell Dlg 2" font-size="12.5" font-style="normal" font-weight="400" stroke="#000000" stroke-linecap="square" stroke-linejoin="bevel" stroke-opacity="1" stroke-width="1" transform="matrix(0,-1,1,0,11,247)">
                    <text fill="#000000" fill-opacity="1" font-family="&quot;MS Shell Dlg 2&quot;, sans-serif" font-size="12.5" font-style="normal" font-weight="400" stroke="none" x="4" xml:space="preserve" y="14">QE </text>
                </g>
                


                

            </g>
        </g>
        <g fill="none" fill-rule="evenodd" id="ViewBox_1" stroke="black" stroke-linecap="square" stroke-linejoin="bevel" stroke-width="1">
            <g fill="none" font-family="MS Shell Dlg 2" font-size="12.5" font-style="normal" font-weight="400" stroke="none">
                <path d="M53.0,31.0 L629.0,31.0 L629.0,438.2 L53.0,438.2 L53.0,31.0 " fill-rule="evenodd" vector-effect="non-scaling-stroke"/>
            </g>
            <clipPath id="ViewBox_1_clip">
                <path d="M53.0,31.0 L629.0,31.0 L629.0,438.2 L53.0,438.2 L53.0,31.0 " fill-rule="evenodd" vector-effect="non-scaling-stroke"/>
            </clipPath>
            <g clip-path="url(#ViewBox_1_clip)">
                <g fill="none" fill-rule="evenodd" id="ChildGroup_1" stroke="black" stroke-linecap="square" stroke-linejoin="bevel" stroke-width="1">
                    <g id="PlotDataItem_1">
                        <g fill="none" fill-rule="evenodd" id="PlotCurveItem_1" stroke="black" stroke-linecap="square" stroke-linejoin="bevel" stroke-width="1">
                            <g fill="none" font-family="MS Shell Dlg 2" font-size="12.5" font-style="normal" font-weight="400" stroke="#1f77b4" stroke-linecap="square" stroke-linejoin="bevel" stroke-opacity="1" stroke-width="1">
                                <path d="M188.4894,413.40532 L224.6521339,349.7040064 L245.8058256,163.4225242 L260.8148678,145.553259 L272.4566661,126.8989424 L281.9685595,114.0390528 L290.011263,108.0950922 L296.9776017,90.8239614 L303.1222512,85.6650522 L308.6194,155.5346268 L313.5915807,307.797215 L318.1312934,363.5732478 L322.3070122,368.6573902 L326.1739969,362.5265126 L329.7730917,361.9657616 L333.1403356,360.5825758 L336.3033585,361.4050106 L339.2849851,350.4890578 L342.1056375,313.2551914 L344.7821339,297.2924796 L347.3276886,281.5914516 L349.7543146,265.553973 L352.0740249,245.366937 L354.2940273,223.5350314 L356.4239322,200.31994 L365.9358256,177.8899 L380.9448678,140.5065 L402.0985595,88.16974 L417.1076017,65.7397 L438.2612934,63.122862 L453.2703356,127.6466104 L456.4333585,149.0299152 L459.4149851,170.8244374 L462.2356375,57.8144192 L464.9121339,56.6181504 L469.8843146,54.7863638 L472.2040249,54.1882294 L476.5539322,53.963929 L480.5686768,55.5340318 L482.4667308,57.1789014 L484.297512,59.4966722 L486.0658256,62.5247276 L491.0380063,76.020135 L495.577719,95.3099694 L497.007266,102.7118826 L498.3983714,110.5250132 L499.7534378,118.5998276 L501.0748678,126.9363258 L507.2195173,169.6281686 L512.7166661,210.0770074 L517.6888468,245.4417038 L522.2285595,275.1241234 L526.4042783,299.4607168 L530.271263,319.2739188 L533.8703578,335.3861642 L537.2376017,348.4703542 L540.4006246,359.1620066 L543.3822512,367.9471056 L546.2029036,375.1994852 L548.8794,381.2182126 L558.3912934,397.143541 L566.4339969,405.6669562 L573.4003356,410.5641816 L579.5449851,413.5548536 L585.0421339,415.4987904 L590.0143146,416.8072094 L594.5540273,417.7417944 L598.7297461,418.3773122 L602.5967308,418.8632964 L606.1958256,419.199747 " fill-rule="evenodd" vector-effect="non-scaling-stroke"/>
                            </g>
                        </g>
                    </g>
                    <g id="PlotDataItem_2">
                        <g fill="none" fill-rule="evenodd" id="PlotCurveItem_2" stroke="black" stroke-linecap="square" stroke-linejoin="bevel" stroke-width="1">
                            <g fill="none" font-family="MS Shell Dlg 2" font-size="12.5" font-style="normal" font-weight="400" stroke="#ff7f0e" stroke-linecap="square" stroke-linejoin="bevel" stroke-opacity="1" stroke-width="1">
                                <path d="M188.4894,413.40532 L224.6521339,349.7040064 L245.8058256,163.4225242 L260.8148678,145.553259 L272.4566661,126.8989424 L281.9685595,114.0390528 L290.011263,108.0950922 L296.9776017,90.8239614 L303.1222512,85.6650522 L308.6194,155.5346268 L313.5915807,307.797215 L318.1312934,363.5732478 L322.3070122,368.6573902 L326.1739969,362.5265126 L329.7730917,361.9657616 L333.1403356,360.5825758 L336.3033585,361.4050106 L339.2849851,350.4890578 L342.1056375,313.2551914 L344.7821339,297.2924796 L347.3276886,281.5914516 L349.7543146,265.553973 L352.0740249,245.366937 L354.2940273,223.5350314 L356.4239322,200.31994 L365.9358256,177.8899 L380.9448678,140.5065 L402.0985595,88.16974 L417.1076017,65.7397 L438.2612934,65.7397 L453.2703356,54.5620634 L456.4333585,59.7209726 L459.4149851,67.3845696 L462.2356375,57.8144192 L464.9121339,56.580767 L469.8843146,54.5994468 L472.2040249,53.8143954 L476.5539322,52.5433598 L480.5686768,51.534008 L482.4667308,51.1227906 L484.297512,50.78634 L486.0658256,50.4872728 L491.0380063,50.0012886 L495.577719,50.5620396 L497.007266,51.1227906 L498.3983714,51.907842 L499.7534378,53.029344 L501.0748678,54.4125298 L507.2195173,66.8985854 L512.7166661,88.356657 L517.6888468,116.3194402 L522.2285595,147.2728954 L526.4042783,178.3011174 L530.271263,207.5723196 L533.8703578,234.1145336 L537.2376017,257.5913088 L540.4006246,278.1147954 L543.3822512,295.834527 L546.2029036,311.1243376 L548.8794,324.245911 L558.3912934,360.9190264 L566.4339969,381.6668134 L573.4003356,394.0033354 L579.5449851,401.7043158 L585.0421339,406.7510748 L590.0143146,410.1529642 L594.5540273,412.5455018 L598.7297461,414.2277548 L602.5967308,415.461407 L606.1958256,416.395992 " fill-rule="evenodd" vector-effect="non-scaling-stroke"/>
                            </g>
                        </g>
                    </g>
                    <g id="PlotDataItem_3">
                        <g fill="none" fill-rule="evenodd" id="PlotCurveItem_3" stroke="black" stroke-linecap="square" stroke-linejoin="bevel" stroke-width="1">
                            <g fill="none" font-family="MS Shell Dlg 2" font-size="12.5" font-style="normal" font-weight="400" stroke="#2ca02c" stroke-linecap="square" stroke-linejoin="bevel" stroke-opacity="1" stroke-width="1">
                                <path d="M75.805045387,410.60904168 L75.805045387,409.579876678 L75.809574288,408.55108551 L75.809574288,407.522294342 L75.809574288,406.493503174 L76.595140397,405.466207342 L76.595140397,404.43704234 L76.595140397,403.408251172 L76.59959722,400.321503834 L76.59959722,401.350668836 L76.59959722,402.379460004 L76.604054043,399.292712666 L76.604054043,398.263921498 L76.604054043,397.234756496 L76.604054043,396.205965328 L76.608498853,395.17717416 L76.608498853,394.148382992 L76.608498853,393.119591824 L76.608498853,392.090426822 L77.395386392,389.005548654 L77.395386392,390.034339822 L77.395386392,391.06313099 L77.399771137,387.976383652 L77.399771137,386.947592484 L77.399771137,385.918801316 L77.399771137,384.890010148 L77.404155882,383.860845146 L77.404155882,382.832053978 L78.187859976,380.775966978 L78.187859976,379.74717581 L78.187859976,381.804758146 L78.192184656,378.718010808 L78.192184656,377.68921964 L78.192184656,376.660428472 L78.196497323,375.63126347 L78.196497323,374.602472302 L78.196497323,373.573681134 L78.981246548,370.488429132 L78.981246548,372.546385302 L78.981246548,371.517594134 L78.98549915,367.402055628 L78.98549915,369.460011798 L78.98549915,368.430846796 L78.989763765,366.372890626 L78.989763765,365.344099458 L78.989763765,364.31530829 L78.989763765,363.286143288 L78.994016367,362.25735212 L78.994016367,361.228560952 L78.994016367,360.199769784 L78.998268969,358.141813614 L78.998268969,359.170604782 L79.779522411,357.114517782 L79.783714948,356.085726614 L79.783714948,355.05730928 L79.783714948,354.027770444 L79.787907485,352.998979276 L79.787907485,351.970188108 L79.787907485,350.94139694 L79.787907485,349.912231938 L80.57397814,346.827727604 L80.57397814,347.856144938 L80.57397814,348.884936106 L80.57818269,345.798562602 L80.57818269,344.769771434 L80.57818269,343.740606432 L80.58226711,342.711815264 L80.58226711,341.682650262 L81.36479393,340.655728264 L81.36875822,339.626563262 L81.36875822,338.597772094 L82.15164543,337.570476262 L82.15164543,336.541685094 L82.15560972,335.512893926 L82.15560972,334.483728924 L82.15560972,333.454937756 L82.93873719,332.427641924 L82.94270148,330.370059588 L82.94270148,329.34126842 L82.94270148,331.39922459 L82.94666577,326.254521082 L82.94666577,328.312103418 L82.94666577,327.28331225 L82.95050993,325.22535608 L82.95050993,324.196564912 L82.95050993,323.167773744 L82.95050993,322.138608742 L82.95447422,321.110191408 L82.95447422,320.081026406 L83.73736143,319.053730574 L83.74132572,315.966983236 L83.74132572,316.995774404 L83.74132572,318.024939406 L83.74516988,314.938565902 L83.74516988,313.9094009 L83.74516988,312.880609732 L83.74516988,311.85144473 L83.74901404,310.822653562 L83.74901404,309.79348856 L83.74901404,308.764697392 L83.75297833,305.677950054 L83.75297833,307.735906224 L83.75297833,306.70748889 L83.75682249,304.649158886 L83.75682249,303.620367718 L83.75682249,302.59157655 L83.76066665,301.562411548 L83.76066665,300.53362038 L84.54319347,299.506324548 L84.54703763,297.448368378 L84.54703763,298.477907214 L84.54703763,296.419951044 L85.33292809,295.392281378 L85.33292809,294.36349021 L85.33292809,293.334699042 L85.33665212,290.247951704 L85.33665212,289.219160536 L85.33665212,292.305907874 L85.33665212,291.276742872 L85.34049628,286.132413198 L85.34049628,288.189995534 L85.34049628,287.161204366 L85.34422031,285.10362203 L85.34422031,284.074457028 L85.34422031,283.04566586 L85.34794434,282.017248526 L85.34794434,280.98770969 L85.34794434,279.959292356 L85.3517885,276.872171184 L85.3517885,277.901336186 L85.3517885,278.930127354 L85.35551253,275.843380016 L86.13683805,274.816084184 L86.14056208,273.787293016 L86.14056208,272.758501848 L86.14056208,271.729336846 L86.14428611,266.585007172 L86.14428611,267.61379834 L86.14428611,269.67175451 L86.14428611,270.700545678 L86.14428611,268.642589508 L86.93233891,265.55771134 L86.93233891,264.528920172 L86.93233891,263.49975517 L86.93594281,262.470964002 L86.93594281,261.442172834 L86.93594281,260.413381666 L86.93954671,259.384216664 L86.93954671,258.355425496 L86.93954671,257.326634328 L86.94327074,256.297469326 L86.94327074,255.268678158 L86.94327074,254.23988699 L86.94687464,253.211095822 L86.94687464,252.18193082 L87.73012224,250.12584382 L87.73012224,251.155008822 L87.73372614,248.068261484 L87.73372614,247.039096482 L87.73372614,249.097052652 L87.73733004,244.981514146 L87.73733004,243.952722978 L87.73733004,246.010305314 L87.74093394,242.923557976 L88.52310037,241.896262144 L88.52658414,240.867470976 L88.52658414,239.838679808 L88.52658414,238.80988864 L88.53018804,236.75193247 L88.53018804,235.723141302 L88.53018804,237.781097472 L88.53367181,234.6939763 L88.53367181,233.665185132 L88.53367181,232.636393964 L89.31812071,231.609471966 L89.31812071,230.580306964 L89.32160448,229.551141962 L89.32160448,228.522350794 L89.32508825,227.493559626 L90.10461182,224.408681458 L90.10461182,225.437472626 L90.10461182,226.466263794 L90.11145923,223.379516456 L90.11145923,222.350725288 L90.11145923,221.32193412 L90.89638865,220.294638288 L90.89987242,219.26584712 L90.89987242,218.236682118 L91.67975638,216.180968952 L91.67975638,217.209386286 L92.46780918,215.153299286 L93.25069639,214.126377288 L93.2539399,213.097212286 L94.03802841,212.069916454 L94.81983445,211.042994456 L94.81983445,210.013829454 L95.60560478,207.957742454 L95.60560478,208.986907456 L96.39197576,206.930446622 L97.1725805,205.903524624 L97.1725805,204.874733456 L97.95642875,203.847437624 L98.74340038,202.820141792 L98.74340038,201.791350624 L99.52724863,200.764054792 L100.31349948,199.73675896 L101.09662695,198.709463128 L101.87903364,198.711332298 L102.66071955,199.741618802 L103.44144442,199.743487972 L103.44144442,200.77227914 L104.22385111,200.774522144 L105.0050565,201.804434814 L105.78746319,201.806303984 L106.56830819,202.836964322 L107.35011423,203.867250826 L107.35251683,202.838459658 L108.12999819,205.926702332 L108.13240079,204.898284998 L108.91036267,209.01531884 L108.91036267,207.986153838 L108.91276527,206.95736267 L109.68640247,214.161517684 L109.68868494,212.103561514 L109.68868494,213.132352682 L109.69108754,210.046353012 L109.69108754,211.074770346 L110.46268253,219.308090362 L110.464965,217.249760358 L110.464965,218.278551526 L110.46724747,215.191804188 L110.46724747,216.22096919 L111.24352753,220.338003032 L111.24352753,221.367168034 L112.0242524,222.397454538 L112.80461688,224.456906044 L112.80689935,223.428114876 L113.58438071,226.516731384 L113.58666318,225.487566382 L114.36570623,227.547017888 L115.14607071,229.606469394 L115.14823305,228.577678226 L115.92763649,231.6659209 L115.92763649,230.637129732 L116.70788084,232.696581238 L116.70788084,233.725372406 L117.48884597,234.756032744 L118.26824941,236.81548425 L118.27029162,235.786693082 L119.042247,244.019639264 L119.04416908,242.990848096 L119.04621129,241.961683094 L119.04621129,240.93326576 L119.04813337,237.846144588 L119.04813337,238.87530959 L119.04813337,239.904100758 L119.82044914,248.136673106 L119.82044914,249.165838108 L119.82237122,247.107881938 L119.8242933,245.050299602 L119.8242933,246.07909077 L120.59865128,252.254080782 L120.60057336,251.225289614 L120.60057336,250.196124612 L121.38057745,253.285114954 L122.1584192,256.372983794 L122.16022115,255.344192626 L122.16214323,254.315401458 L122.93578043,261.519182638 L122.93758238,259.461600302 L122.93758238,260.49039147 L122.93950446,258.4324353 L122.94130641,257.403644132 L123.71626504,263.578634144 L123.71806699,262.549842976 L124.49230484,267.696415654 L124.49578861,265.638459484 L124.49578861,266.666876818 L124.49759056,264.609294482 L125.26041606,281.073317676 L125.26221801,280.044526508 L125.26389983,277.986570338 L125.26389983,279.015361506 L125.26570178,276.95777917 L125.2709875,271.813075662 L125.2709875,272.842240664 L125.27266932,268.726702158 L125.27266932,270.784284494 L125.27266932,269.755493326 L126.04162145,282.103978014 L126.04162145,283.132769182 L126.05027081,274.90169217 L126.05027081,275.930483338 L126.05195263,273.872527168 L126.81982359,286.221011856 L126.82150541,285.192220688 L126.82318723,284.16342952 L127.59658417,291.3672107 L127.59826599,290.338419532 L127.59994781,288.280463362 L127.59994781,289.309628364 L127.60162963,287.251672194 L128.3703415,298.571365714 L128.37190319,297.542574546 L128.37358501,296.513409544 L128.37526683,294.455827208 L128.37526683,295.484618376 L128.37694865,293.426662206 L128.37851034,292.397871038 L129.14566052,304.746355726 L129.14566052,305.775146894 L129.14734234,303.717564558 L129.14890403,302.688399556 L129.15058585,300.63081722 L129.15058585,301.659608388 L129.15214754,299.602026052 L129.91773603,314.008093076 L129.91929772,312.979301908 L129.92097954,311.950136906 L129.92254123,309.89255457 L129.92254123,310.921345738 L129.92410292,308.863763402 L129.92578474,307.8345984 L129.92734643,306.805807232 L130.68957128,323.269830426 L130.68957128,324.298621594 L130.69113297,322.241413092 L130.69269466,321.21224809 L130.69425635,319.15429192 L130.69425635,320.183456922 L130.69593817,318.125500752 L130.69749986,317.09633575 L130.69906155,315.038753414 L130.69906155,316.067544582 L131.46260783,330.47398544 L131.46260783,331.502776608 L131.46260783,332.531567776 L131.46573121,329.444820438 L131.4672929,327.387238102 L131.4672929,328.41602927 L131.46885459,326.3580731 L131.47041628,325.329281932 L132.24273205,333.562601948 L133.0265803,333.56372345 L133.80910712,333.56559262 L134.59043264,333.567087956 L135.37319972,334.597748294 L136.15428498,335.628408632 L136.93512998,336.65906897 L137.71693602,337.689355474 L138.49669985,338.720015812 L138.49669985,339.749180814 L139.27826563,340.779467318 L139.27958706,339.75067615 L140.05766907,343.868083826 L140.0589905,342.839292658 L140.06031193,341.810127656 L140.8398355,343.869579162 L141.61046945,354.160481514 L141.61179088,353.131316512 L141.61299218,352.102525344 L141.61431361,351.073734176 L141.61563504,350.044569174 L141.61683634,349.015778006 L141.61815777,347.986986838 L141.6194792,346.957821836 L141.6206805,345.929030668 L141.62200193,344.9002395 L141.62200193,343.871448332 L142.39263588,355.190768018 L143.17191919,357.250219524 L143.17312049,356.221428356 L143.95324471,358.280879862 L144.73384945,360.340331368 L144.73505075,359.3115402 L145.51613601,360.342200538 L146.29722127,362.401652044 L146.29842257,361.372860876 L147.07854679,363.431938548 L147.85951192,363.433807718 L148.64251926,364.464468056 L149.42492595,364.465963392 L150.20565082,365.49662373 L150.98865816,365.498119066 L151.77178563,365.499988236 L151.77490901,362.413614732 L152.55263063,366.530648574 L152.55359167,365.501483572 L152.55467284,364.472692404 L152.55671505,363.443901236 L152.55779622,362.415110068 L152.55887739,361.385945066 L152.55983843,360.357153898 L152.5609196,359.32836273 L152.56200077,358.299197728 L153.34644967,357.27227573 L153.34753084,356.243110728 L154.13149922,355.21618873 L154.91486695,354.188892898 L154.91582799,353.159727896 L154.91678903,352.130936728 L155.69835481,353.161597066 L156.47980046,354.192257404 L157.26028507,356.25170891 L157.26124611,355.222543908 L158.04317228,356.253204246 L158.82293611,358.312655752 L158.82473806,357.283864584 L159.60474215,359.34331609 L160.38570728,360.373976428 L160.38750923,359.344811426 L161.16751332,361.404636766 L161.94992001,361.406132102 L162.73100527,362.43679244 L163.51401261,362.438287776 L164.29545826,363.469321948 L165.07930651,362.441652282 L165.86279437,361.41435645 L165.86435606,360.385565282 L166.64808418,359.35826945 L166.64892509,358.329478282 L167.43277334,357.30218245 L167.43433503,356.273391282 L167.43505581,355.244600114 L168.21890406,354.217304282 L168.22046575,353.188886948 L169.00395361,352.161217282 L169.00539517,351.132426114 L169.00695686,350.103261112 L169.7899642,349.07596528 L170.57405271,348.049043282 L171.35657953,348.050538618 L171.35802109,347.022121284 L172.14030765,347.02361662 L172.92451629,345.995946954 L173.70812428,344.969024956 L173.70956584,343.939859954 L174.4918524,343.941729124 L175.27461948,343.94322446 L176.0571463,343.94509363 L176.83847182,344.975753968 L177.61991747,346.006040472 L178.40112286,347.037074644 L179.18268864,348.067361148 L179.96449468,349.098021486 L180.74545981,350.128681824 L181.52702559,351.158968328 L182.3087115,352.189628666 L183.08979676,353.220289004 L183.87148267,354.250949342 L184.65268806,355.281235846 L185.43413371,356.311896184 L186.21437806,358.37134769 L186.21545923,357.342556522 L186.99702501,358.37321686 L187.77811027,359.403503364 L188.5602767,359.405372534 L189.342323,360.436032872 L190.123168,361.466319376 L190.1255706,360.437528208 L190.9064156,361.468188546 L191.6872606,362.498848884 L192.4705082,362.50034422 L193.2513532,363.531004558 L194.0346008,363.532499894 L194.8154458,364.563160232 L195.5986934,364.565029402 L196.3807397,364.566524738 L197.1639873,364.568393908 L197.9460336,364.569889244 L198.7292812,364.571758414 L199.5113275,364.57325375 L200.2945751,364.57512292 L201.0766214,364.576618256 L201.8586677,364.578487426 L202.6419153,364.579982762 L203.4239616,364.581478098 L204.2072092,364.583347268 L204.9880542,365.614007606 L205.7713018,365.615502942 L206.5545494,364.58820711 L207.3389983,363.561285112 L208.1210446,363.562780448 L208.9042922,362.535484616 L209.6887411,361.508188784 L210.4707874,361.510057954 L211.2552363,360.482762122 L211.2564376,359.453970954 L212.0396852,358.426675122 L212.8241341,357.39937929 L213.6073817,356.372083458 L213.608583,355.343666124 L214.3930319,354.315996458 L214.3942332,353.28720529 L215.1774808,352.259909458 L215.9619297,351.232613626 L215.963131,350.204196292 L216.7463786,349.176526626 L216.7475799,348.147735458 L216.7487812,347.11894429 L217.5320288,346.091648458 L218.3164777,345.064352626 L218.317679,344.035561458 L218.3188803,343.00677029 L219.1033292,341.979474458 L219.1045305,340.95068329 L219.1045305,339.921518288 L219.8889794,338.894222456 L219.8901807,337.865431288 L219.891382,336.83664012 L219.8925833,335.807848952 L219.8937846,334.77868395 L219.8949859,333.749892782 L220.6782335,332.72259695 L220.6794348,331.693805782 L220.6806361,330.665014614 L220.6818374,329.635849612 L221.4662863,328.608927614 L221.4674876,327.579762612 L221.4686889,326.550971444 L221.4698902,325.522180276 L221.4710915,324.493015274 L221.4722928,323.464224106 L222.2555404,322.437302108 L222.2567417,321.408137106 L222.257943,320.379345938 L223.0411906,319.352050106 L223.0435932,318.323258938 L223.8268408,317.29633694 L224.6112897,316.268667274 L224.612491,315.239876106 L224.6136923,314.210711104 L225.3969399,313.183789106 L225.3981412,312.154624104 L225.3993425,311.125832936 L225.4005438,310.097041768 L226.1849927,309.069745936 L226.186194,308.040954768 L226.1873953,307.011789766 L226.1885966,305.982998598 L226.9718442,304.955702766 L226.9730455,303.927285432 L226.9742468,302.89812043 L226.9754481,301.869329262 L227.7586957,300.84203343 L227.759897,299.812868428 L227.7622996,298.78407726 L228.5455472,297.756781428 L228.5467485,296.72799026 L228.5479498,295.699199092 L229.3311974,294.67190326 L229.3323987,293.643112092 L230.1168476,292.61581626 L230.1180489,291.587025092 L230.1192502,290.55786009 L230.9024978,289.530564258 L230.9036991,288.50177309 L230.9049004,287.472981922 L231.6893493,286.44568609 L231.6905506,285.416894922 L231.6917519,284.38772992 L231.6929532,283.358938752 L231.6941545,282.330147584 L231.6953558,281.301356416 L231.6965571,280.272191414 L232.4798047,279.245269416 L232.481006,278.216104414 L232.4822073,277.187313246 L233.2666562,276.160391248 L233.2678575,275.131226246 L234.0511051,274.103930414 L234.0523064,273.075139246 L234.0535077,272.045974244 L234.8379566,271.019052246 L234.8391579,269.989887244 L235.6224055,268.962965246 L235.6236068,267.933800244 L236.4068544,266.906504412 L236.4080557,265.877713244 L237.1925046,264.850417412 L237.1937059,263.821626244 L237.9769535,262.794330412 L238.7614024,261.767408414 L239.54465,260.740112582 L240.3290989,259.71281675 L241.1123465,258.685520918 L241.8955941,258.687390088 L242.6788417,257.660094256 L243.4620893,257.661589592 L244.2441356,257.663832596 L245.0273832,257.665327932 L245.8094295,257.666823268 L246.5914758,257.668318604 L247.3747234,257.670187774 L248.1567697,257.67168311 L248.938816,258.702343448 L249.7208623,258.703838784 L250.5041099,258.705707954 L251.2849549,259.736368292 L252.0670012,260.766654796 L252.0682025,259.737863628 L252.8490475,260.7688978 L253.6310938,261.799184304 L254.4131401,261.80067964 L255.1951864,262.831339978 L255.9772327,262.832835314 L256.7604803,262.834704484 L257.5425266,262.83619982 L258.3233716,263.866860158 L259.1054179,264.897520496 L259.8874642,264.899015832 L260.6695105,265.92967617 L261.4515568,265.93154534 L262.2348044,265.93341451 L263.0168507,265.934909846 L263.8000983,265.936405182 L264.5821446,265.938274352 L265.3641909,266.968560856 L266.1462372,266.970430026 L266.9294848,266.971925362 L267.7115311,266.973794532 L268.49598,265.9464987 L269.2780263,265.94836787 L270.0612739,264.921072038 L270.8445215,264.922567374 L271.6265678,264.924436544 L272.4110167,263.897514546 L273.193063,263.898636048 L273.9775119,262.87171405 L274.7595582,262.873209386 L275.5428058,262.874704722 L276.3248521,262.876573892 L277.1080997,262.878069228 L277.8889447,263.908729566 L278.6721923,263.910598736 L279.4542386,263.912467906 L280.2362849,263.913963242 L281.0183312,264.94462358 L281.8003775,264.946118916 L282.5836251,264.947614252 L283.3656714,264.949483422 L284.148919,264.950978758 L284.929764,265.981639096 L285.7130116,265.983508266 L286.4950579,265.985377436 L287.2783055,265.986872772 L288.0603518,265.988368108 L288.8435994,265.990237278 L289.6256457,265.991732614 L290.4088933,265.993601784 L291.1909396,265.99509712 L291.9729859,265.996592456 L292.7562335,265.998461626 L293.5382798,265.999956962 L294.3215274,266.001826132 L295.1035737,266.003321468 L295.8868213,266.005190638 L296.6688676,266.006685974 L297.4521152,266.008555144 L298.2341615,266.01005048 L299.0174091,266.01191965 L299.7994554,266.013414986 L300.5839043,264.986119154 L301.3659506,264.987988324 L301.3671519,263.959197156 L302.1491982,263.960692492 L302.9336471,262.93339666 " fill-rule="evenodd" vector-effect="non-scaling-stroke"/>
                            </g>
                        </g>
                    </g>
                </g>
                <g fill="none" fill-rule="evenodd" id="LegendItem_1" stroke="black" stroke-linecap="square" stroke-linejoin="bevel" stroke-width="1">
                    <g fill="#000000" fill-opacity="0" font-family="MS Shell Dlg 2" font-size="12.5" font-style="normal" font-weight="400" stroke="#000000" stroke-linecap="square" stroke-linejoin="bevel" stroke-opacity="0" stroke-width="1">
                        <path d="M54.0,32.0 L198.0,32.0 L198.0,128.0 L54.0,128.0 L54.0,32.0 " fill-rule="evenodd" vector-effect="non-scaling-stroke"/>
                    </g>
                    <g fill="none" fill-rule="evenodd" id="ItemSample_1" stroke="black" stroke-linecap="square" stroke-linejoin="bevel" stroke-width="1">
                        <g fill="none" font-family="MS Shell Dlg 2" font-size="12.5" font-style="normal" font-weight="400" stroke="#1f77b4" stroke-linecap="square" stroke-linejoin="bevel" stroke-opacity="1" stroke-width="1">
                            <polyline fill="none" points="67.0,61.0 83.0,45.0" vector-effect="non-scaling-stroke"/>
                        </g>
                    </g>
                    <g fill="none" fill-rule="evenodd" id="LabelItem_1" stroke="black" stroke-linecap="square" stroke-linejoin="bevel" stroke-width="1">
                        <g fill="none" fill-rule="evenodd" id="QGraphicsTextItem_3" stroke="black" stroke-linecap="square" stroke-linejoin="bevel" stroke-width="1">
                            


                            <g fill="none" font-family="MS Shell Dlg 2" font-size="12.5" font-style="normal" font-weight="400" stroke="#000000" stroke-linecap="square" stroke-linejoin="bevel" stroke-opacity="1" stroke-width="1" transform="matrix(1,0,0,1,72,43)">
                                <text fill="#000000" fill-opacity="1" font-family="&quot;MS Shell Dlg 2&quot;, sans-serif" font-size="12.5" font-style="normal" font-weight="400" stroke="none" x="4" xml:space="preserve" y="14">Andor 15 micron no AR</text>
                            </g>
                            


                            

                        </g>
                    </g>
                    <g fill="none" fill-rule="evenodd" id="ItemSample_2" stroke="black" stroke-linecap="square" stroke-linejoin="bevel" stroke-width="1">
                        <g fill="none" font-family="MS Shell Dlg 2" font-size="12.5" font-style="normal" font-weight="400" stroke="#ff7f0e" stroke-linecap="square" stroke-linejoin="bevel" stroke-opacity="1" stroke-width="1">
                            <polyline fill="none" points="67.0,88.0 83.0,72.0" vector-effect="non-scaling-stroke"/>
                        </g>
                    </g>
                    <g fill="none" fill-rule="evenodd" id="LabelItem_2" stroke="black" stroke-linecap="square" stroke-linejoin="bevel" stroke-width="1">
                        <g fill="none" fill-rule="evenodd" id="QGraphicsTextItem_4" stroke="black" stroke-linecap="square" stroke-linejoin="bevel" stroke-width="1">
                            


                            <g fill="none" font-family="MS Shell Dlg 2" font-size="12.5" font-style="normal" font-weight="400" stroke="#000000" stroke-linecap="square" stroke-linejoin="bevel" stroke-opacity="1" stroke-width="1" transform="matrix(1,0,0,1,72,70)">
                                <text fill="#000000" fill-opacity="1" font-family="&quot;MS Shell Dlg 2&quot;, sans-serif" font-size="12.5" font-style="normal" font-weight="400" stroke="none" x="4" xml:space="preserve" y="14">Andor 40 micron no AR</text>
                            </g>
                            


                            

                        </g>
                    </g>
                    <g fill="none" fill-rule="evenodd" id="ItemSample_3" stroke="black" stroke-linecap="square" stroke-linejoin="bevel" stroke-width="1">
                        <g fill="none" font-family="MS Shell Dlg 2" font-size="12.5" font-style="normal" font-weight="400" stroke="#2ca02c" stroke-linecap="square" stroke-linejoin="bevel" stroke-opacity="1" stroke-width="1">
                            <polyline fill="none" points="67.0,115.0 83.0,99.0" vector-effect="non-scaling-stroke"/>
                        </g>
                    </g>
                    <g fill="none" fill-rule="evenodd" id="LabelItem_3" stroke="black" stroke-linecap="square" stroke-linejoin="bevel" stroke-width="1">
                        <g fill="none" fill-rule="evenodd" id="QGraphicsTextItem_5" stroke="black" stroke-linecap="square" stroke-linejoin="bevel" stroke-width="1">
                            


                            <g fill="none" font-family="MS Shell Dlg 2" font-size="12.5" font-style="normal" font-weight="400" stroke="#000000" stroke-linecap="square" stroke-linejoin="bevel" stroke-opacity="1" stroke-width="1" transform="matrix(1,0,0,1,85.5,97)">
                                <text fill="#000000" fill-opacity="1" font-family="&quot;MS Shell Dlg 2&quot;, sans-serif" font-size="12.5" font-style="normal" font-weight="400" stroke="none" x="4" xml:space="preserve" y="14">PI PIXIS XO 400b</text>
                            </g>
                            


                            

                        </g>
                    </g>
                </g>
            </g>
        </g>
        <g fill="none" fill-rule="evenodd" id="LabelItem_4" stroke="black" stroke-linecap="square" stroke-linejoin="bevel" stroke-width="1">
            <g fill="none" fill-rule="evenodd" id="QGraphicsTextItem_6" stroke="black" stroke-linecap="square" stroke-linejoin="bevel" stroke-width="1">
                


                <g fill="none" font-family="MS Shell Dlg 2" font-size="12.5" font-style="normal" font-weight="400" stroke="#000000" stroke-linecap="square" stroke-linejoin="bevel" stroke-opacity="1" stroke-width="1" transform="matrix(1,0,0,1,230.5,11)">
                    <text fill="#000000" fill-opacity="1" font-family="&quot;MS Shell Dlg 2&quot;, sans-serif" font-size="12.5" font-style="normal" font-weight="400" stroke="none" x="4" xml:space="preserve" y="14">XUV CCD camera quantum efficiencies</text>
                </g>
                


                

            </g>
        </g>
    </g>
</g>

</svg>
